<svg width="512" height="512"
    xmlns="http://www.w3.org/2000/svg">
    <path d="m291.285 9.31 162.84 93.15c21.559 12.46 34.85 35.477 34.875 60.397v186.245c-.026 24.92-13.316 47.937-34.965 60.449l-162.66 93.047a69.697 69.697 0 0 1-28.392 9.057L256.5 512l-1.554-.058a69.404 69.404 0 0 1-33.231-9.293L58.875 409.5C37.316 397.04 24.025 374.022 24 349.078v-186.22c.026-24.921 13.316-47.938 34.965-60.45L221.625 9.36c21.58-12.473 48.17-12.473 69.66-.052ZM70 176l.023 173.342c.009 8.312 4.445 15.99 11.552 20.094L233 456V269.69L70 176Zm372.977 0-67.996 39.13a23.259 23.259 0 0 1-3.58 2.085L280 269.706V456l151.357-86.48A23.284 23.284 0 0 0 443 349.394L442.977 176Zm-291.402-73L94 135.87 256.239 229 314 195.847 151.575 103Zm93.512-52.848L199 76.412 361.268 169 419 135.911l-150.573-85.81c-7.194-4.143-16.057-4.143-23.34.05Z" fill="#64748b" fill-rule="nonzero"/>
</svg>
